<svg width="10" height="10" viewBox="0 0 10 10" fill="none" xmlns="http://www.w3.org/2000/svg">
<path d="M6.14253 0.451264C6.1836 0.451191 6.22428 0.459212 6.26224 0.474869C6.3002 0.490526 6.33471 0.513513 6.36378 0.542514L9.45753 3.63626C9.51612 3.69487 9.54903 3.77434 9.54903 3.8572C9.54903 3.94007 9.51612 4.01954 9.45753 4.07814C9.15753 4.37814 8.78753 4.44564 8.51816 4.44564C8.40753 4.44564 8.30878 4.43439 8.23066 4.42126L6.27191 6.38001C6.32347 6.58777 6.35693 6.7996 6.37191 7.01314C6.40066 7.45189 6.35191 8.06751 5.92191 8.49751C5.86331 8.5561 5.78383 8.58901 5.70097 8.58901C5.61811 8.58901 5.53864 8.5561 5.48003 8.49751L3.71191 6.73001L1.72316 8.71876C1.60128 8.84064 0.961283 9.28251 0.839408 9.16064C0.717533 9.03876 1.15941 8.39814 1.28128 8.27689L3.27003 6.28814L1.50253 4.52001C1.44395 4.46141 1.41104 4.38194 1.41104 4.29908C1.41104 4.21621 1.44395 4.13674 1.50253 4.07814C1.93253 3.64814 2.54816 3.59876 2.98691 3.62814C3.20044 3.6431 3.41228 3.67656 3.62003 3.72814L5.57878 1.77001C5.56243 1.67484 5.55407 1.57846 5.55378 1.48189C5.55378 1.21314 5.62128 0.843139 5.92191 0.542514C5.98047 0.484096 6.05981 0.451282 6.14253 0.451264ZM6.21878 1.77126V1.77001V1.77126ZM6.21878 1.77001V1.77126C6.23683 1.82624 6.23926 1.88516 6.2258 1.94144C6.21233 1.99772 6.18351 2.04915 6.14253 2.09001L3.93316 4.29876C3.89211 4.33964 3.8405 4.3683 3.7841 4.38154C3.72771 4.39479 3.66874 4.39209 3.61378 4.37376H3.61253L3.60378 4.37126C3.54432 4.35345 3.48429 4.33761 3.42378 4.32376C3.26656 4.28709 3.10669 4.26285 2.94566 4.25126C2.68191 4.23376 2.42316 4.25626 2.21128 4.34501L5.65503 7.78814C5.74316 7.57564 5.76566 7.31751 5.74816 7.05376C5.73224 6.83047 5.692 6.60958 5.62816 6.39501L5.62566 6.38689V6.38626C5.6072 6.33122 5.60444 6.27213 5.61769 6.21561C5.63094 6.15909 5.65967 6.10737 5.70066 6.06626L7.91066 3.85689C7.95322 3.81407 8.00727 3.7845 8.06627 3.77174C8.12528 3.75899 8.18672 3.7636 8.24316 3.78501L8.30316 3.79876C8.35753 3.80939 8.43316 3.82001 8.51816 3.82001C8.58941 3.82001 8.66191 3.81314 8.73253 3.79501L6.20441 1.26751C6.18628 1.33814 6.17941 1.41126 6.17941 1.48189C6.17971 1.579 6.19274 1.67566 6.21816 1.76939L6.21878 1.77001Z" fill="white" fill-opacity="0.7"/>
</svg>
